<svg xmlns="http://www.w3.org/2000/svg" width="396mm" height="214mm" viewBox="0 0 396 214"><style>text {font-family:TsangerJinKai02, Noto Serif CJK SC, serif;font-weight:400;}</style><g data-cad-view="CardReaderDetail" transform="translate(108.5,71.0) scale(1.2356451612903225)"><g   fill="none"
   stroke="rgb(0, 0, 0)"
   stroke-linecap="butt"
   stroke-linejoin="miter"
   stroke-width="0.1456729"
   transform="scale(1, -1)"
  >
<path  d=" M -62 5.4 L -56 5.4 " />
<path  d=" M -62 7.2 L -56 7.2 " />
<path  d=" M 56 5.4 L 62 5.4 " />
<path  d=" M 56 7.2 L 62 7.2 " />
</g>
<g   fill="none"
   stroke="rgb(0, 0, 0)"
   stroke-linecap="butt"
   stroke-linejoin="miter"
   stroke-width="0.1456729"
   transform="scale(1, -1)"
  >
<path d="M-56, 6.3 C-56, 6.06383 -56, 5.83115 -56, 5.6636  C-56, 5.64119 -56, 5.61877 -56, 5.59635  C-56, 5.57688 -56, 5.55742 -56, 5.53795  C-56, 5.52167 -56, 5.5054 -56, 5.48913  C-56, 5.47625 -56, 5.46338 -56, 5.45051  C-56, 5.44119 -56, 5.43188 -56, 5.42256  C-56, 5.41693 -56, 5.41129 -56, 5.40566  C-56, 5.40377 -56, 5.40189 -56, 5.4 " /><path d="M-56, 7.2 C-56, 7.19811 -56, 7.19623 -56, 7.19434  C-56, 7.18871 -56, 7.18307 -56, 7.17744  C-56, 7.16812 -56, 7.15881 -56, 7.14949  C-56, 7.13662 -56, 7.12375 -56, 7.11087  C-56, 7.0946 -56, 7.07833 -56, 7.06205  C-56, 7.04258 -56, 7.02312 -56, 7.00365  C-56, 6.98123 -56, 6.95881 -56, 6.9364  C-56, 6.76885 -56, 6.53617 -56, 6.3 " /><path d="M-62, 6.3 C-62, 6.06383 -62, 5.83115 -62, 5.6636  C-62, 5.64119 -62, 5.61877 -62, 5.59635  C-62, 5.57688 -62, 5.55742 -62, 5.53795  C-62, 5.52167 -62, 5.5054 -62, 5.48913  C-62, 5.47625 -62, 5.46338 -62, 5.45051  C-62, 5.44119 -62, 5.43188 -62, 5.42256  C-62, 5.41693 -62, 5.41129 -62, 5.40566  C-62, 5.40377 -62, 5.40189 -62, 5.4 " /><path d="M-62, 7.2 C-62, 7.19811 -62, 7.19623 -62, 7.19434  C-62, 7.18871 -62, 7.18307 -62, 7.17744  C-62, 7.16812 -62, 7.15881 -62, 7.14949  C-62, 7.13662 -62, 7.12375 -62, 7.11087  C-62, 7.0946 -62, 7.07833 -62, 7.06205  C-62, 7.04258 -62, 7.02312 -62, 7.00365  C-62, 6.98123 -62, 6.95881 -62, 6.9364  C-62, 6.76885 -62, 6.53617 -62, 6.3 " /><path d="M62, 6.3 C62, 6.06383 62, 5.83115 62, 5.6636  C62, 5.64119 62, 5.61877 62, 5.59635  C62, 5.57688 62, 5.55742 62, 5.53795  C62, 5.52167 62, 5.5054 62, 5.48913  C62, 5.47625 62, 5.46338 62, 5.45051  C62, 5.44119 62, 5.43188 62, 5.42256  C62, 5.41693 62, 5.41129 62, 5.40566  C62, 5.40377 62, 5.40189 62, 5.4 " /><path d="M62, 7.2 C62, 7.19811 62, 7.19623 62, 7.19434  C62, 7.18871 62, 7.18307 62, 7.17744  C62, 7.16812 62, 7.15881 62, 7.14949  C62, 7.13662 62, 7.12375 62, 7.11087  C62, 7.0946 62, 7.07833 62, 7.06205  C62, 7.04258 62, 7.02312 62, 7.00365  C62, 6.98123 62, 6.95881 62, 6.9364  C62, 6.76885 62, 6.53617 62, 6.3 " /><path d="M56, 6.3 C56, 6.06383 56, 5.83115 56, 5.6636  C56, 5.64119 56, 5.61877 56, 5.59635  C56, 5.57688 56, 5.55742 56, 5.53795  C56, 5.52167 56, 5.5054 56, 5.48913  C56, 5.47625 56, 5.46338 56, 5.45051  C56, 5.44119 56, 5.43188 56, 5.42256  C56, 5.41693 56, 5.41129 56, 5.40566  C56, 5.40377 56, 5.40189 56, 5.4 " /><path d="M56, 7.2 C56, 7.19811 56, 7.19623 56, 7.19434  C56, 7.18871 56, 7.18307 56, 7.17744  C56, 7.16812 56, 7.15881 56, 7.14949  C56, 7.13662 56, 7.12375 56, 7.11087  C56, 7.0946 56, 7.07833 56, 7.06205  C56, 7.04258 56, 7.02312 56, 7.00365  C56, 6.98123 56, 6.95881 56, 6.9364  C56, 6.76885 56, 6.53617 56, 6.3 " /><path  d=" M -55.5 -6.2 L -55.5 2.8 " />
<path d="M-55.5 -6.2 A1 1 0 0 1 -54.5 -7.2" /><path d="M-55.5 2.8 A1 1 0 0 0 -54.5 3.8" /><path  d=" M -54.5 -7.2 L 48.5 -7.2 " />
<path  d=" M -54.5 3.8 L 48.5 3.8 " />
<path d="M49.5 -6.2 A1 1 0 0 0 48.5 -7.2" /><path d="M49.5 2.8 A1 1 0 0 1 48.5 3.8" /><path  d=" M 49.5 -6.2 L 49.5 2.8 " />
<path d="M-52 -4.2 A0.3 0.3 0 0 1 -51.7 -4.5" /><path  d=" M 45.7 -4.5 L -51.7 -4.5 " />
<path d="M45.7 -4.5 A0.3 0.3 0 0 1 46 -4.2" /><path  d=" M 46 -4.2 L 46 0.8 " />
<path d="M46 0.8 A0.3 0.3 0 0 1 45.7 1.1" /><path  d=" M 45.7 1.1 L -51.7 1.1 " />
<path d="M-51.7 1.1 A0.3 0.3 0 0 1 -52 0.8" /><path  d=" M -52 -4.2 L -52 0.8 " />
<path  d=" M -46.78 -4.1 L -46.78 -4.26 " />
<path  d=" M -46.02 -4.1 L -46.02 -4.26 " />
<path  d=" M -46.78 -4.1 L -46.02 -4.1 " />
<path  d=" M -46.78 -4.26 L -46.02 -4.26 " />
<path  d=" M -46.02 -4.1 L -46.02 -2.85 " />
<path  d=" M -46.02 -2.85 L -46.78 -2.85 " />
<path  d=" M -46.78 -2.85 L -46.78 -4.1 " />
<path  d=" M -43.98 -4.1 L -43.98 -4.26 " />
<path  d=" M -43.22 -4.1 L -43.22 -4.26 " />
<path  d=" M -43.98 -4.1 L -43.22 -4.1 " />
<path  d=" M -43.98 -4.26 L -43.22 -4.26 " />
<path  d=" M -43.22 -4.1 L -43.22 -2.85 " />
<path  d=" M -43.22 -2.85 L -43.98 -2.85 " />
<path  d=" M -43.98 -2.85 L -43.98 -4.1 " />
<path  d=" M -41.18 -4.1 L -41.18 -4.26 " />
<path  d=" M -40.42 -4.1 L -40.42 -4.26 " />
<path  d=" M -41.18 -4.1 L -40.42 -4.1 " />
<path  d=" M -41.18 -4.26 L -40.42 -4.26 " />
<path  d=" M -40.42 -4.1 L -40.42 -2.85 " />
<path  d=" M -40.42 -2.85 L -41.18 -2.85 " />
<path  d=" M -41.18 -2.85 L -41.18 -4.1 " />
<path  d=" M -38.38 -4.1 L -38.38 -4.26 " />
<path  d=" M -37.62 -4.1 L -37.62 -4.26 " />
<path  d=" M -38.38 -4.1 L -37.62 -4.1 " />
<path  d=" M -38.38 -4.26 L -37.62 -4.26 " />
<path  d=" M -37.62 -4.1 L -37.62 -2.85 " />
<path  d=" M -37.62 -2.85 L -38.38 -2.85 " />
<path  d=" M -38.38 -2.85 L -38.38 -4.1 " />
<path  d=" M -35.58 -4.1 L -35.58 -4.26 " />
<path  d=" M -34.82 -4.1 L -34.82 -4.26 " />
<path  d=" M -35.58 -4.1 L -34.82 -4.1 " />
<path  d=" M -35.58 -4.26 L -34.82 -4.26 " />
<path  d=" M -34.82 -4.1 L -34.82 -2.85 " />
<path  d=" M -34.82 -2.85 L -35.58 -2.85 " />
<path  d=" M -35.58 -2.85 L -35.58 -4.1 " />
<path  d=" M -32.78 -4.1 L -32.78 -4.26 " />
<path  d=" M -32.02 -4.1 L -32.02 -4.26 " />
<path  d=" M -32.78 -4.1 L -32.02 -4.1 " />
<path  d=" M -32.78 -4.26 L -32.02 -4.26 " />
<path  d=" M -32.02 -4.1 L -32.02 -2.85 " />
<path  d=" M -32.02 -2.85 L -32.78 -2.85 " />
<path  d=" M -32.78 -2.85 L -32.78 -4.1 " />
<path  d=" M -29.98 -4.1 L -29.98 -4.26 " />
<path  d=" M -29.22 -4.1 L -29.22 -4.26 " />
<path  d=" M -29.98 -4.1 L -29.22 -4.1 " />
<path  d=" M -29.98 -4.26 L -29.22 -4.26 " />
<path  d=" M -29.22 -4.1 L -29.22 -2.85 " />
<path  d=" M -29.22 -2.85 L -29.98 -2.85 " />
<path  d=" M -29.98 -2.85 L -29.98 -4.1 " />
<path  d=" M -27.18 -4.1 L -27.18 -4.26 " />
<path  d=" M -26.42 -4.1 L -26.42 -4.26 " />
<path  d=" M -27.18 -4.1 L -26.42 -4.1 " />
<path  d=" M -27.18 -4.26 L -26.42 -4.26 " />
<path  d=" M -26.42 -4.1 L -26.42 -2.85 " />
<path  d=" M -26.42 -2.85 L -27.18 -2.85 " />
<path  d=" M -27.18 -2.85 L -27.18 -4.1 " />
<path  d=" M -24.38 -4.1 L -24.38 -4.26 " />
<path  d=" M -23.62 -4.1 L -23.62 -4.26 " />
<path  d=" M -24.38 -4.1 L -23.62 -4.1 " />
<path  d=" M -24.38 -4.26 L -23.62 -4.26 " />
<path  d=" M -23.62 -4.1 L -23.62 -2.85 " />
<path  d=" M -23.62 -2.85 L -24.38 -2.85 " />
<path  d=" M -24.38 -2.85 L -24.38 -4.1 " />
<path  d=" M -21.58 -4.1 L -21.58 -4.26 " />
<path  d=" M -20.82 -4.1 L -20.82 -4.26 " />
<path  d=" M -21.58 -4.1 L -20.82 -4.1 " />
<path  d=" M -21.58 -4.26 L -20.82 -4.26 " />
<path  d=" M -20.82 -4.1 L -20.82 -2.85 " />
<path  d=" M -20.82 -2.85 L -21.58 -2.85 " />
<path  d=" M -21.58 -2.85 L -21.58 -4.1 " />
<path  d=" M -18.78 -4.1 L -18.78 -4.26 " />
<path  d=" M -18.02 -4.1 L -18.02 -4.26 " />
<path  d=" M -18.78 -4.1 L -18.02 -4.1 " />
<path  d=" M -18.78 -4.26 L -18.02 -4.26 " />
<path  d=" M -18.02 -4.1 L -18.02 -2.85 " />
<path  d=" M -18.02 -2.85 L -18.78 -2.85 " />
<path  d=" M -18.78 -2.85 L -18.78 -4.1 " />
<path  d=" M -15.98 -4.1 L -15.98 -4.26 " />
<path  d=" M -15.22 -4.1 L -15.22 -4.26 " />
<path  d=" M -15.98 -4.1 L -15.22 -4.1 " />
<path  d=" M -15.98 -4.26 L -15.22 -4.26 " />
<path  d=" M -15.22 -4.1 L -15.22 -2.85 " />
<path  d=" M -15.22 -2.85 L -15.98 -2.85 " />
<path  d=" M -15.98 -2.85 L -15.98 -4.1 " />
<path  d=" M -13.18 -4.1 L -13.18 -4.26 " />
<path  d=" M -12.42 -4.1 L -12.42 -4.26 " />
<path  d=" M -13.18 -4.1 L -12.42 -4.1 " />
<path  d=" M -13.18 -4.26 L -12.42 -4.26 " />
<path  d=" M -12.42 -4.1 L -12.42 -2.85 " />
<path  d=" M -12.42 -2.85 L -13.18 -2.85 " />
<path  d=" M -13.18 -2.85 L -13.18 -4.1 " />
<path  d=" M -10.38 -4.1 L -10.38 -4.26 " />
<path  d=" M -9.62 -4.1 L -9.62 -4.26 " />
<path  d=" M -10.38 -4.1 L -9.62 -4.1 " />
<path  d=" M -10.38 -4.26 L -9.62 -4.26 " />
<path  d=" M -9.62 -4.1 L -9.62 -2.85 " />
<path  d=" M -9.62 -2.85 L -10.38 -2.85 " />
<path  d=" M -10.38 -2.85 L -10.38 -4.1 " />
<path  d=" M -7.58 -4.1 L -7.58 -4.26 " />
<path  d=" M -6.82 -4.1 L -6.82 -4.26 " />
<path  d=" M -7.58 -4.1 L -6.82 -4.1 " />
<path  d=" M -7.58 -4.26 L -6.82 -4.26 " />
<path  d=" M -6.82 -4.1 L -6.82 -2.85 " />
<path  d=" M -6.82 -2.85 L -7.58 -2.85 " />
<path  d=" M -7.58 -2.85 L -7.58 -4.1 " />
<path  d=" M -4.78 -4.1 L -4.78 -4.26 " />
<path  d=" M -4.02 -4.1 L -4.02 -4.26 " />
<path  d=" M -4.78 -4.1 L -4.02 -4.1 " />
<path  d=" M -4.78 -4.26 L -4.02 -4.26 " />
<path  d=" M -4.02 -4.1 L -4.02 -2.85 " />
<path  d=" M -4.02 -2.85 L -4.78 -2.85 " />
<path  d=" M -4.78 -2.85 L -4.78 -4.1 " />
<path  d=" M -1.98 -4.1 L -1.98 -4.26 " />
<path  d=" M -1.22 -4.1 L -1.22 -4.26 " />
<path  d=" M -1.98 -4.1 L -1.22 -4.1 " />
<path  d=" M -1.98 -4.26 L -1.22 -4.26 " />
<path  d=" M -1.22 -4.1 L -1.22 -2.85 " />
<path  d=" M -1.22 -2.85 L -1.98 -2.85 " />
<path  d=" M -1.98 -2.85 L -1.98 -4.1 " />
<path  d=" M 0.82 -4.1 L 0.82 -4.26 " />
<path  d=" M 1.58 -4.1 L 1.58 -4.26 " />
<path  d=" M 0.82 -4.1 L 1.58 -4.1 " />
<path  d=" M 0.82 -4.26 L 1.58 -4.26 " />
<path  d=" M 1.58 -4.1 L 1.58 -2.85 " />
<path  d=" M 1.58 -2.85 L 0.82 -2.85 " />
<path  d=" M 0.82 -2.85 L 0.82 -4.1 " />
<path  d=" M 3.62 -4.1 L 3.62 -4.26 " />
<path  d=" M 4.38 -4.1 L 4.38 -4.26 " />
<path  d=" M 3.62 -4.1 L 4.38 -4.1 " />
<path  d=" M 3.62 -4.26 L 4.38 -4.26 " />
<path  d=" M 4.38 -4.1 L 4.38 -2.85 " />
<path  d=" M 4.38 -2.85 L 3.62 -2.85 " />
<path  d=" M 3.62 -2.85 L 3.62 -4.1 " />
<path  d=" M 6.42 -4.1 L 6.42 -4.26 " />
<path  d=" M 7.18 -4.1 L 7.18 -4.26 " />
<path  d=" M 6.42 -4.1 L 7.18 -4.1 " />
<path  d=" M 6.42 -4.26 L 7.18 -4.26 " />
<path  d=" M 7.18 -4.1 L 7.18 -2.85 " />
<path  d=" M 7.18 -2.85 L 6.42 -2.85 " />
<path  d=" M 6.42 -2.85 L 6.42 -4.1 " />
<path  d=" M 9.22 -4.1 L 9.22 -4.26 " />
<path  d=" M 9.98 -4.1 L 9.98 -4.26 " />
<path  d=" M 9.22 -4.1 L 9.98 -4.1 " />
<path  d=" M 9.22 -4.26 L 9.98 -4.26 " />
<path  d=" M 9.98 -4.1 L 9.98 -2.85 " />
<path  d=" M 9.98 -2.85 L 9.22 -2.85 " />
<path  d=" M 9.22 -2.85 L 9.22 -4.1 " />
<path  d=" M 12.02 -4.1 L 12.02 -4.26 " />
<path  d=" M 12.78 -4.1 L 12.78 -4.26 " />
<path  d=" M 12.02 -4.1 L 12.78 -4.1 " />
<path  d=" M 12.02 -4.26 L 12.78 -4.26 " />
<path  d=" M 12.78 -4.1 L 12.78 -2.85 " />
<path  d=" M 12.78 -2.85 L 12.02 -2.85 " />
<path  d=" M 12.02 -2.85 L 12.02 -4.1 " />
<path  d=" M 14.82 -4.1 L 14.82 -4.26 " />
<path  d=" M 15.58 -4.1 L 15.58 -4.26 " />
<path  d=" M 14.82 -4.1 L 15.58 -4.1 " />
<path  d=" M 14.82 -4.26 L 15.58 -4.26 " />
<path  d=" M 15.58 -4.1 L 15.58 -2.85 " />
<path  d=" M 15.58 -2.85 L 14.82 -2.85 " />
<path  d=" M 14.82 -2.85 L 14.82 -4.1 " />
<path  d=" M 17.62 -4.1 L 17.62 -4.26 " />
<path  d=" M 18.38 -4.1 L 18.38 -4.26 " />
<path  d=" M 17.62 -4.1 L 18.38 -4.1 " />
<path  d=" M 17.62 -4.26 L 18.38 -4.26 " />
<path  d=" M 18.38 -4.1 L 18.38 -2.85 " />
<path  d=" M 18.38 -2.85 L 17.62 -2.85 " />
<path  d=" M 17.62 -2.85 L 17.62 -4.1 " />
<path  d=" M 20.42 -4.1 L 20.42 -4.26 " />
<path  d=" M 21.18 -4.1 L 21.18 -4.26 " />
<path  d=" M 20.42 -4.1 L 21.18 -4.1 " />
<path  d=" M 20.42 -4.26 L 21.18 -4.26 " />
<path  d=" M 21.18 -4.1 L 21.18 -2.85 " />
<path  d=" M 21.18 -2.85 L 20.42 -2.85 " />
<path  d=" M 20.42 -2.85 L 20.42 -4.1 " />
<path  d=" M 23.22 -4.1 L 23.22 -4.26 " />
<path  d=" M 23.98 -4.1 L 23.98 -4.26 " />
<path  d=" M 23.22 -4.1 L 23.98 -4.1 " />
<path  d=" M 23.22 -4.26 L 23.98 -4.26 " />
<path  d=" M 23.98 -4.1 L 23.98 -2.85 " />
<path  d=" M 23.98 -2.85 L 23.22 -2.85 " />
<path  d=" M 23.22 -2.85 L 23.22 -4.1 " />
<path  d=" M 26.02 -4.1 L 26.02 -4.26 " />
<path  d=" M 26.78 -4.1 L 26.78 -4.26 " />
<path  d=" M 26.02 -4.1 L 26.78 -4.1 " />
<path  d=" M 26.02 -4.26 L 26.78 -4.26 " />
<path  d=" M 26.78 -4.1 L 26.78 -2.85 " />
<path  d=" M 26.78 -2.85 L 26.02 -2.85 " />
<path  d=" M 26.02 -2.85 L 26.02 -4.1 " />
<path  d=" M 28.82 -4.1 L 28.82 -4.26 " />
<path  d=" M 29.58 -4.1 L 29.58 -4.26 " />
<path  d=" M 28.82 -4.1 L 29.58 -4.1 " />
<path  d=" M 28.82 -4.26 L 29.58 -4.26 " />
<path  d=" M 29.58 -4.1 L 29.58 -2.85 " />
<path  d=" M 29.58 -2.85 L 28.82 -2.85 " />
<path  d=" M 28.82 -2.85 L 28.82 -4.1 " />
<path  d=" M 31.62 -4.1 L 31.62 -4.26 " />
<path  d=" M 32.38 -4.1 L 32.38 -4.26 " />
<path  d=" M 31.62 -4.1 L 32.38 -4.1 " />
<path  d=" M 31.62 -4.26 L 32.38 -4.26 " />
<path  d=" M 32.38 -4.1 L 32.38 -2.85 " />
<path  d=" M 32.38 -2.85 L 31.62 -2.85 " />
<path  d=" M 31.62 -2.85 L 31.62 -4.1 " />
<path  d=" M 34.42 -4.1 L 34.42 -4.26 " />
<path  d=" M 35.18 -4.1 L 35.18 -4.26 " />
<path  d=" M 34.42 -4.1 L 35.18 -4.1 " />
<path  d=" M 34.42 -4.26 L 35.18 -4.26 " />
<path  d=" M 35.18 -4.1 L 35.18 -2.85 " />
<path  d=" M 35.18 -2.85 L 34.42 -2.85 " />
<path  d=" M 34.42 -2.85 L 34.42 -4.1 " />
<path  d=" M 37.22 -4.1 L 37.22 -4.26 " />
<path  d=" M 37.98 -4.1 L 37.98 -4.26 " />
<path  d=" M 37.22 -4.1 L 37.98 -4.1 " />
<path  d=" M 37.22 -4.26 L 37.98 -4.26 " />
<path  d=" M 37.98 -4.1 L 37.98 -2.85 " />
<path  d=" M 37.98 -2.85 L 37.22 -2.85 " />
<path  d=" M 37.22 -2.85 L 37.22 -4.1 " />
<path  d=" M 40.02 -4.1 L 40.02 -4.26 " />
<path  d=" M 40.78 -4.1 L 40.78 -4.26 " />
<path  d=" M 40.02 -4.1 L 40.78 -4.1 " />
<path  d=" M 40.02 -4.26 L 40.78 -4.26 " />
<path  d=" M 40.78 -4.1 L 40.78 -2.85 " />
<path  d=" M 40.78 -2.85 L 40.02 -2.85 " />
<path  d=" M 40.02 -2.85 L 40.02 -4.1 " />
<path  d=" M -46.78 0.7 L -46.78 0.86 " />
<path  d=" M -46.02 0.7 L -46.02 0.86 " />
<path  d=" M -46.78 0.7 L -46.02 0.7 " />
<path  d=" M -46.78 0.86 L -46.02 0.86 " />
<path  d=" M -46.02 0.7 L -46.02 -0.55 " />
<path  d=" M -46.02 -0.55 L -46.78 -0.55 " />
<path  d=" M -46.78 -0.55 L -46.78 0.7 " />
<path  d=" M -43.98 0.7 L -43.98 0.86 " />
<path  d=" M -43.22 0.7 L -43.22 0.86 " />
<path  d=" M -43.98 0.7 L -43.22 0.7 " />
<path  d=" M -43.98 0.86 L -43.22 0.86 " />
<path  d=" M -43.22 0.7 L -43.22 -0.55 " />
<path  d=" M -43.22 -0.55 L -43.98 -0.55 " />
<path  d=" M -43.98 -0.55 L -43.98 0.7 " />
<path  d=" M -41.18 0.7 L -41.18 0.86 " />
<path  d=" M -40.42 0.7 L -40.42 0.86 " />
<path  d=" M -41.18 0.7 L -40.42 0.7 " />
<path  d=" M -41.18 0.86 L -40.42 0.86 " />
<path  d=" M -40.42 0.7 L -40.42 -0.55 " />
<path  d=" M -40.42 -0.55 L -41.18 -0.55 " />
<path  d=" M -41.18 -0.55 L -41.18 0.7 " />
<path  d=" M -38.38 0.7 L -38.38 0.86 " />
<path  d=" M -37.62 0.7 L -37.62 0.86 " />
<path  d=" M -38.38 0.7 L -37.62 0.7 " />
<path  d=" M -38.38 0.86 L -37.62 0.86 " />
<path  d=" M -37.62 0.7 L -37.62 -0.55 " />
<path  d=" M -37.62 -0.55 L -38.38 -0.55 " />
<path  d=" M -38.38 -0.55 L -38.38 0.7 " />
<path  d=" M -35.58 0.7 L -35.58 0.86 " />
<path  d=" M -34.82 0.7 L -34.82 0.86 " />
<path  d=" M -35.58 0.7 L -34.82 0.7 " />
<path  d=" M -35.58 0.86 L -34.82 0.86 " />
<path  d=" M -34.82 0.7 L -34.82 -0.55 " />
<path  d=" M -34.82 -0.55 L -35.58 -0.55 " />
<path  d=" M -35.58 -0.55 L -35.58 0.7 " />
<path  d=" M -32.78 0.7 L -32.78 0.86 " />
<path  d=" M -32.02 0.7 L -32.02 0.86 " />
<path  d=" M -32.78 0.7 L -32.02 0.7 " />
<path  d=" M -32.78 0.86 L -32.02 0.86 " />
<path  d=" M -32.02 0.7 L -32.02 -0.55 " />
<path  d=" M -32.02 -0.55 L -32.78 -0.55 " />
<path  d=" M -32.78 -0.55 L -32.78 0.7 " />
<path  d=" M -29.98 0.7 L -29.98 0.86 " />
<path  d=" M -29.22 0.7 L -29.22 0.86 " />
<path  d=" M -29.98 0.7 L -29.22 0.7 " />
<path  d=" M -29.98 0.86 L -29.22 0.86 " />
<path  d=" M -29.22 0.7 L -29.22 -0.55 " />
<path  d=" M -29.22 -0.55 L -29.98 -0.55 " />
<path  d=" M -29.98 -0.55 L -29.98 0.7 " />
<path  d=" M -27.18 0.7 L -27.18 0.86 " />
<path  d=" M -26.42 0.7 L -26.42 0.86 " />
<path  d=" M -27.18 0.7 L -26.42 0.7 " />
<path  d=" M -27.18 0.86 L -26.42 0.86 " />
<path  d=" M -26.42 0.7 L -26.42 -0.55 " />
<path  d=" M -26.42 -0.55 L -27.18 -0.55 " />
<path  d=" M -27.18 -0.55 L -27.18 0.7 " />
<path  d=" M -24.38 0.7 L -24.38 0.86 " />
<path  d=" M -23.62 0.7 L -23.62 0.86 " />
<path  d=" M -24.38 0.7 L -23.62 0.7 " />
<path  d=" M -24.38 0.86 L -23.62 0.86 " />
<path  d=" M -23.62 0.7 L -23.62 -0.55 " />
<path  d=" M -23.62 -0.55 L -24.38 -0.55 " />
<path  d=" M -24.38 -0.55 L -24.38 0.7 " />
<path  d=" M -21.58 0.7 L -21.58 0.86 " />
<path  d=" M -20.82 0.7 L -20.82 0.86 " />
<path  d=" M -21.58 0.7 L -20.82 0.7 " />
<path  d=" M -21.58 0.86 L -20.82 0.86 " />
<path  d=" M -20.82 0.7 L -20.82 -0.55 " />
<path  d=" M -20.82 -0.55 L -21.58 -0.55 " />
<path  d=" M -21.58 -0.55 L -21.58 0.7 " />
<path  d=" M -18.78 0.7 L -18.78 0.86 " />
<path  d=" M -18.02 0.7 L -18.02 0.86 " />
<path  d=" M -18.78 0.7 L -18.02 0.7 " />
<path  d=" M -18.78 0.86 L -18.02 0.86 " />
<path  d=" M -18.02 0.7 L -18.02 -0.55 " />
<path  d=" M -18.02 -0.55 L -18.78 -0.55 " />
<path  d=" M -18.78 -0.55 L -18.78 0.7 " />
<path  d=" M -15.98 0.7 L -15.98 0.86 " />
<path  d=" M -15.22 0.7 L -15.22 0.86 " />
<path  d=" M -15.98 0.7 L -15.22 0.7 " />
<path  d=" M -15.98 0.86 L -15.22 0.86 " />
<path  d=" M -15.22 0.7 L -15.22 -0.55 " />
<path  d=" M -15.22 -0.55 L -15.98 -0.55 " />
<path  d=" M -15.98 -0.55 L -15.98 0.7 " />
<path  d=" M -13.18 0.7 L -13.18 0.86 " />
<path  d=" M -12.42 0.7 L -12.42 0.86 " />
<path  d=" M -13.18 0.7 L -12.42 0.7 " />
<path  d=" M -13.18 0.86 L -12.42 0.86 " />
<path  d=" M -12.42 0.7 L -12.42 -0.55 " />
<path  d=" M -12.42 -0.55 L -13.18 -0.55 " />
<path  d=" M -13.18 -0.55 L -13.18 0.7 " />
<path  d=" M -10.38 0.7 L -10.38 0.86 " />
<path  d=" M -9.62 0.7 L -9.62 0.86 " />
<path  d=" M -10.38 0.7 L -9.62 0.7 " />
<path  d=" M -10.38 0.86 L -9.62 0.86 " />
<path  d=" M -9.62 0.7 L -9.62 -0.55 " />
<path  d=" M -9.62 -0.55 L -10.38 -0.55 " />
<path  d=" M -10.38 -0.55 L -10.38 0.7 " />
<path  d=" M -7.58 0.7 L -7.58 0.86 " />
<path  d=" M -6.82 0.7 L -6.82 0.86 " />
<path  d=" M -7.58 0.7 L -6.82 0.7 " />
<path  d=" M -7.58 0.86 L -6.82 0.86 " />
<path  d=" M -6.82 0.7 L -6.82 -0.55 " />
<path  d=" M -6.82 -0.55 L -7.58 -0.55 " />
<path  d=" M -7.58 -0.55 L -7.58 0.7 " />
<path  d=" M -4.78 0.7 L -4.78 0.86 " />
<path  d=" M -4.02 0.7 L -4.02 0.86 " />
<path  d=" M -4.78 0.7 L -4.02 0.7 " />
<path  d=" M -4.78 0.86 L -4.02 0.86 " />
<path  d=" M -4.02 0.7 L -4.02 -0.55 " />
<path  d=" M -4.02 -0.55 L -4.78 -0.55 " />
<path  d=" M -4.78 -0.55 L -4.78 0.7 " />
<path  d=" M -1.98 0.7 L -1.98 0.86 " />
<path  d=" M -1.22 0.7 L -1.22 0.86 " />
<path  d=" M -1.98 0.7 L -1.22 0.7 " />
<path  d=" M -1.98 0.86 L -1.22 0.86 " />
<path  d=" M -1.22 0.7 L -1.22 -0.55 " />
<path  d=" M -1.22 -0.55 L -1.98 -0.55 " />
<path  d=" M -1.98 -0.55 L -1.98 0.7 " />
<path  d=" M 0.82 0.7 L 0.82 0.86 " />
<path  d=" M 1.58 0.7 L 1.58 0.86 " />
<path  d=" M 0.82 0.7 L 1.58 0.7 " />
<path  d=" M 0.82 0.86 L 1.58 0.86 " />
<path  d=" M 1.58 0.7 L 1.58 -0.55 " />
<path  d=" M 1.58 -0.55 L 0.82 -0.55 " />
<path  d=" M 0.82 -0.55 L 0.82 0.7 " />
<path  d=" M 3.62 0.7 L 3.62 0.86 " />
<path  d=" M 4.38 0.7 L 4.38 0.86 " />
<path  d=" M 3.62 0.7 L 4.38 0.7 " />
<path  d=" M 3.62 0.86 L 4.38 0.86 " />
<path  d=" M 4.38 0.7 L 4.38 -0.55 " />
<path  d=" M 4.38 -0.55 L 3.62 -0.55 " />
<path  d=" M 3.62 -0.55 L 3.62 0.7 " />
<path  d=" M 6.42 0.7 L 6.42 0.86 " />
<path  d=" M 7.18 0.7 L 7.18 0.86 " />
<path  d=" M 6.42 0.7 L 7.18 0.7 " />
<path  d=" M 6.42 0.86 L 7.18 0.86 " />
<path  d=" M 7.18 0.7 L 7.18 -0.55 " />
<path  d=" M 7.18 -0.55 L 6.42 -0.55 " />
<path  d=" M 6.42 -0.55 L 6.42 0.7 " />
<path  d=" M 9.22 0.7 L 9.22 0.86 " />
<path  d=" M 9.98 0.7 L 9.98 0.86 " />
<path  d=" M 9.22 0.7 L 9.98 0.7 " />
<path  d=" M 9.22 0.86 L 9.98 0.86 " />
<path  d=" M 9.98 0.7 L 9.98 -0.55 " />
<path  d=" M 9.98 -0.55 L 9.22 -0.55 " />
<path  d=" M 9.22 -0.55 L 9.22 0.7 " />
<path  d=" M 12.02 0.7 L 12.02 0.86 " />
<path  d=" M 12.78 0.7 L 12.78 0.86 " />
<path  d=" M 12.02 0.7 L 12.78 0.7 " />
<path  d=" M 12.02 0.86 L 12.78 0.86 " />
<path  d=" M 12.78 0.7 L 12.78 -0.55 " />
<path  d=" M 12.78 -0.55 L 12.02 -0.55 " />
<path  d=" M 12.02 -0.55 L 12.02 0.7 " />
<path  d=" M 14.82 0.7 L 14.82 0.86 " />
<path  d=" M 15.58 0.7 L 15.58 0.86 " />
<path  d=" M 14.82 0.7 L 15.58 0.7 " />
<path  d=" M 14.82 0.86 L 15.58 0.86 " />
<path  d=" M 15.58 0.7 L 15.58 -0.55 " />
<path  d=" M 15.58 -0.55 L 14.82 -0.55 " />
<path  d=" M 14.82 -0.55 L 14.82 0.7 " />
<path  d=" M 17.62 0.7 L 17.62 0.86 " />
<path  d=" M 18.38 0.7 L 18.38 0.86 " />
<path  d=" M 17.62 0.7 L 18.38 0.7 " />
<path  d=" M 17.62 0.86 L 18.38 0.86 " />
<path  d=" M 18.38 0.7 L 18.38 -0.55 " />
<path  d=" M 18.38 -0.55 L 17.62 -0.55 " />
<path  d=" M 17.62 -0.55 L 17.62 0.7 " />
<path  d=" M 20.42 0.7 L 20.42 0.86 " />
<path  d=" M 21.18 0.7 L 21.18 0.86 " />
<path  d=" M 20.42 0.7 L 21.18 0.7 " />
<path  d=" M 20.42 0.86 L 21.18 0.86 " />
<path  d=" M 21.18 0.7 L 21.18 -0.55 " />
<path  d=" M 21.18 -0.55 L 20.42 -0.55 " />
<path  d=" M 20.42 -0.55 L 20.42 0.7 " />
<path  d=" M 23.22 0.7 L 23.22 0.86 " />
<path  d=" M 23.98 0.7 L 23.98 0.86 " />
<path  d=" M 23.22 0.7 L 23.98 0.7 " />
<path  d=" M 23.22 0.86 L 23.98 0.86 " />
<path  d=" M 23.98 0.7 L 23.98 -0.55 " />
<path  d=" M 23.98 -0.55 L 23.22 -0.55 " />
<path  d=" M 23.22 -0.55 L 23.22 0.7 " />
<path  d=" M 26.02 0.7 L 26.02 0.86 " />
<path  d=" M 26.78 0.7 L 26.78 0.86 " />
<path  d=" M 26.02 0.7 L 26.78 0.7 " />
<path  d=" M 26.02 0.86 L 26.78 0.86 " />
<path  d=" M 26.78 0.7 L 26.78 -0.55 " />
<path  d=" M 26.78 -0.55 L 26.02 -0.55 " />
<path  d=" M 26.02 -0.55 L 26.02 0.7 " />
<path  d=" M 28.82 0.7 L 28.82 0.86 " />
<path  d=" M 29.58 0.7 L 29.58 0.86 " />
<path  d=" M 28.82 0.7 L 29.58 0.7 " />
<path  d=" M 28.82 0.86 L 29.58 0.86 " />
<path  d=" M 29.58 0.7 L 29.58 -0.55 " />
<path  d=" M 29.58 -0.55 L 28.82 -0.55 " />
<path  d=" M 28.82 -0.55 L 28.82 0.7 " />
<path  d=" M 31.62 0.7 L 31.62 0.86 " />
<path  d=" M 32.38 0.7 L 32.38 0.86 " />
<path  d=" M 31.62 0.7 L 32.38 0.7 " />
<path  d=" M 31.62 0.86 L 32.38 0.86 " />
<path  d=" M 32.38 0.7 L 32.38 -0.55 " />
<path  d=" M 32.38 -0.55 L 31.62 -0.55 " />
<path  d=" M 31.62 -0.55 L 31.62 0.7 " />
<path  d=" M 34.42 0.7 L 34.42 0.86 " />
<path  d=" M 35.18 0.7 L 35.18 0.86 " />
<path  d=" M 34.42 0.7 L 35.18 0.7 " />
<path  d=" M 34.42 0.86 L 35.18 0.86 " />
<path  d=" M 35.18 0.7 L 35.18 -0.55 " />
<path  d=" M 35.18 -0.55 L 34.42 -0.55 " />
<path  d=" M 34.42 -0.55 L 34.42 0.7 " />
<path  d=" M 37.22 0.7 L 37.22 0.86 " />
<path  d=" M 37.98 0.7 L 37.98 0.86 " />
<path  d=" M 37.22 0.7 L 37.98 0.7 " />
<path  d=" M 37.22 0.86 L 37.98 0.86 " />
<path  d=" M 37.98 0.7 L 37.98 -0.55 " />
<path  d=" M 37.98 -0.55 L 37.22 -0.55 " />
<path  d=" M 37.22 -0.55 L 37.22 0.7 " />
<path  d=" M 40.02 0.7 L 40.02 0.86 " />
<path  d=" M 40.78 0.7 L 40.78 0.86 " />
<path  d=" M 40.02 0.7 L 40.78 0.7 " />
<path  d=" M 40.02 0.86 L 40.78 0.86 " />
<path  d=" M 40.78 0.7 L 40.78 -0.55 " />
<path  d=" M 40.78 -0.55 L 40.02 -0.55 " />
<path  d=" M 40.02 -0.55 L 40.02 0.7 " />
</g>
</g><path d="M 39.92169 73.10060 L 39.92169 18.00000" stroke="#504e49" stroke-width="0.16" fill="none"/><path d="M 169.66444 73.10060 L 169.66444 18.00000" stroke="#504e49" stroke-width="0.16" fill="none"/><path d="M 39.92169 18.00000 L 169.66444 18.00000" stroke="#504e49" stroke-width="0.16" fill="none"/><polygon points="39.9217,18.0000 41.9615,18.4992 41.9615,17.5008" fill="#504e49"/><polygon points="169.6644,18.0000 167.6246,17.5008 167.6246,18.4992" fill="#504e49"/><text x="104.7931" y="16.4000" font-size="3.2" text-anchor="middle" fill="#1B365D">≈ 105</text><text x="108.5000" y="133.0000" font-size="3.2" text-anchor="middle" fill="#141413">两排 64 接点插座 · 1.236:1</text><g data-cad-view="RegulatorAssembly" transform="translate(303.0,67.0) scale(1.8292963372906268)"><g   fill="none"
   stroke="rgb(0, 0, 0)"
   stroke-linecap="butt"
   stroke-linejoin="miter"
   stroke-width="0.0983985"
   transform="scale(1, -1)"
  >
<path  d=" M -24.552 1.00509 L -24.552 1.56651 " />
<path  d=" M 25.3631 -1.58293 L 25.3631 -0.881154 " />
<path  d=" M -23.3876 -9.73169 L -23.3876 -2.71391 " />
<path  d=" M -17.0311 -6.22708 L -17.0311 -4.10632 " />
<path  d=" M -23.5812 -5.70768 L -23.5812 -1.49701 " />
<path  d=" M -5.16191 6.63456 L -5.16191 10.7052 " />
</g>
<g   fill="none"
   stroke="rgb(0, 0, 0)"
   stroke-linecap="butt"
   stroke-linejoin="miter"
   stroke-width="0.0983985"
   transform="scale(1, -1)"
  >
<path  d=" M -24.1137 2.45657 L -7.87165 16.92 " />
<path d="M-24.1137 2.45657 A2 1.42479 6.79821e-15 0 1 -24.552 1.56651" />
<path d="M-24.552 1.56651 A2 1.42479 6.79821e-15 0 1 -23.8014 0.453936" />
<path d="M-7.87165 16.92 A2 1.42479 -180 0 0 -5.06052 17.1426" />
<path  d=" M -23.8014 0.453936 L 5.87165 -16.4572 " />
<path  d=" M -5.06052 17.1426 L 24.6125 0.231421 " />
<path d="M8.68277 -16.2347 A2 1.42479 -180 0 0 5.87165 -16.4572" />
<path d="M24.9248 -1.77121 A2 1.42479 6.79821e-15 0 1 25.3631 -0.881154" />
<path d="M25.3631 -0.881154 A2 1.42479 6.79821e-15 0 1 24.6125 0.231421" />
<path  d=" M 8.68277 -16.2347 L 24.9248 -1.77121 " />
<path d="M-2.60078 7.52991 A3.35 2.38653 6.79821e-15 0 1 -1.86669 9.02076" />
<path d="M-1.86669 9.02076 A3.35 2.38653 6.79821e-15 0 1 -8.56669 9.02076" />
<path d="M-8.56669 9.02076 A3.35 2.38653 6.79821e-15 0 1 -2.60078 7.52991" />
<path  d=" M -6.6663 17.432 L -6.62226 17.4712 " />
<path  d=" M -25.3631 -11.1477 L -25.3631 0.782573 " />
<path  d=" M -25.3631 0.782573 L -24.552 1.50488 " />
<path  d=" M -24.4149 0.346245 L -24.4149 0.4866 " />
<path d="M-24.552 1.00509 A2 1.42479 6.79821e-15 0 1 -24.4149 0.4866" />
<path d="M-24.4149 0.346245 A2 1.42479 6.79821e-15 0 1 -23.8014 -0.247842" />
<path  d=" M -23.8014 -0.247842 L 5.87165 -17.159 " />
<path d="M8.68277 -16.9365 A2 1.42479 -180 0 0 5.87165 -17.159" />
<path d="M24.9248 -2.47299 A2 1.42479 6.79821e-15 0 1 25.3631 -1.58293" />
<path  d=" M 8.68277 -16.9365 L 24.9248 -2.47299 " />
<path d="M-1.9031 8.66987 A3.35 2.38653 6.79821e-15 0 1 -8.53028 8.66987" />
<path  d=" M -6.62226 17.4712 L -6.5719 17.4425 " />
<path  d=" M -24.5822 -11.5927 L -22.9004 -10.095 " />
<path  d=" M -17.0311 -4.86845 L -16.5093 -4.40374 " />
<path  d=" M -25.3631 -11.1477 L -24.5822 -11.5927 " />
<path  d=" M -24.5822 -11.5927 L -24.5822 0.337543 " />
<path  d=" M -25.3631 0.782573 L -24.5822 0.337543 " />
<path  d=" M -24.5822 0.337543 L -24.4149 0.4866 " />
<path  d=" M -23.3328 -2.60265 L -21.9033 -1.32961 " />
<path d="M-23.3328 -2.60265 A0.25 0.178099 6.79821e-15 0 1 -23.3876 -2.71391" />
<path d="M-23.3876 -2.71391 A0.25 0.178099 6.79821e-15 0 1 -23.2938 -2.85298" />
<path  d=" M -23.2938 -2.85298 L -22.1225 -3.52052 " />
<path d="M-21.7711 -3.49271 A0.25 0.178099 -180 0 0 -22.1225 -3.52052" />
<path  d=" M -21.7711 -3.49271 L -20.3415 -2.21967 " />
<path d="M-23.3876 -9.73169 A0.25 0.178099 6.79821e-15 0 1 -23.2938 -9.87076" />
<path  d=" M -23.2938 -9.87076 L -22.1225 -10.5383 " />
<path d="M-21.7711 -10.5105 A0.25 0.178099 -180 0 0 -22.1225 -10.5383" />
<path d="M-17.0859 -6.33833 A0.25 0.178099 6.79821e-15 0 1 -17.0311 -6.22708" />
<path  d=" M -21.7711 -10.5105 L -17.0859 -6.33833 " />
<path  d=" M -23.5593 -1.4525 L -22.8289 -0.802076 " />
<path d="M-23.5593 -1.4525 A0.1 0.0712396 6.79821e-15 0 1 -23.5812 -1.49701" />
<path d="M-23.5812 -1.49701 A0.1 0.0712396 6.79821e-15 0 1 -23.5437 -1.55264" />
<path  d=" M -23.5437 -1.55264 L -23.3094 -1.68614 " />
<path d="M-23.1689 -1.67502 A0.1 0.0712396 -180 0 0 -23.3094 -1.68614" />
<path  d=" M -23.1689 -1.67502 L -22.4385 -1.02459 " />
<path d="M-23.5812 -5.70768 A0.1 0.0712396 6.79821e-15 0 1 -23.5437 -5.7633" />
<path  d=" M -23.5437 -5.7633 L -23.3876 -5.85224 " />
<path  d=" M -8.44232 8.37651 L -5.87997 10.6583 " />
</g>
</g><text x="303.0000" y="133.0000" font-size="3.2" text-anchor="middle" fill="#141413">线性稳压器与折弯散热片 · 1.829:1</text><g data-cad-view="ControlMechanisms" transform="translate(199.5,178.0) scale(0.6336125584529323)"><g   fill="none"
   stroke="rgb(0, 0, 0)"
   stroke-linecap="butt"
   stroke-linejoin="miter"
   stroke-width="0.2840853"
   transform="scale(1, -1)"
  >
<path  d=" M -76.0708 -15.296 L -76.0708 -11.1466 " />
<path  d=" M -58.7249 18.0565 L -58.7249 22.206 " />
<path  d=" M -72.5173 -6.3443 L -72.5173 -4.6845 " />
<path  d=" M -69.4212 -3.86635 L -69.4212 -2.20655 " />
<path  d=" M -45.6669 7.19342 L -45.6669 10.8242 " />
<path  d=" M -20.1739 8.95499 L -20.1739 12.5858 " />
<path  d=" M -36.7879 11.0522 L -36.7879 13.3345 " />
<path  d=" M -32.899 13.401 L -32.899 15.6832 " />
<path  d=" M -25.4298 23.6739 L -25.4298 24.7113 " />
<path  d=" M 76.0708 0.773449 L 76.0708 1.81082 " />
<path  d=" M -48.8734 -24.1626 L -48.8734 -22.0879 " />
<path  d=" M -37.2967 -20.5221 L -37.2967 -18.4473 " />
<path  d=" M -41.0851 -20.2157 L -41.0851 -16.3775 " />
<path  d=" M -45.0851 -20.2157 L -45.0851 -16.3775 " />
</g>
<g   fill="none"
   stroke="rgb(0, 0, 0)"
   stroke-linecap="butt"
   stroke-linejoin="miter"
   stroke-width="0.2840853"
   transform="scale(1, -1)"
  >
<path  d=" M -76.0516 -11.0291 L -64.5133 23.4978 " />
<path d="M-76.0516 -11.0291 A0.5 0.427482 -4.59896e-15 0 1 -76.0708 -11.1466" />
<path d="M-76.0708 -11.1466 A0.5 0.427482 -4.59896e-15 0 1 -75.7082 -11.5576" />
<path d="M-64.5133 23.4978 A0.5 0.427482 180 0 0 -63.8952 23.7914" />
<path  d=" M -75.7082 -11.5576 L -70.9006 -12.732 " />
<path  d=" M -63.8952 23.7914 L -59.0876 22.617 " />
<path d="M-70.2825 -12.4384 A0.5 0.427482 180 0 0 -70.9006 -12.732" />
<path d="M-58.7442 22.0885 A0.5 0.427482 -4.59896e-15 0 1 -58.7249 22.206" />
<path d="M-58.7249 22.206 A0.5 0.427482 -4.59896e-15 0 1 -59.0876 22.617" />
<path  d=" M -70.2825 -12.4384 L -58.7442 22.0885 " />
<path d="M-76.0708 -15.296 A0.5 0.427482 -4.59896e-15 0 1 -75.7082 -15.7071" />
<path  d=" M -75.7082 -15.7071 L -70.9006 -16.8815 " />
<path d="M-70.2825 -16.5879 A0.5 0.427482 180 0 0 -70.9006 -16.8815" />
<path d="M-58.7442 17.939 A0.5 0.427482 -4.59896e-15 0 1 -58.7249 18.0565" />
<path  d=" M -70.2825 -16.5879 L -58.7442 17.939 " />
<path  d=" M -72.5077 -4.62578 L -71.5462 -1.74854 " />
<path d="M-72.5077 -4.62578 A0.25 0.213741 -4.59896e-15 0 1 -72.5173 -4.6845" />
<path d="M-72.5173 -4.6845 A0.25 0.213741 -4.59896e-15 0 1 -72.336 -4.89002" />
<path d="M-71.5462 -1.74854 A0.25 0.213741 180 0 0 -71.2371 -1.60174" />
<path  d=" M -72.336 -4.89002 L -70.7014 -5.28931 " />
<path  d=" M -71.2371 -1.60174 L -69.6025 -2.00103 " />
<path d="M-70.3923 -5.14251 A0.25 0.213741 180 0 0 -70.7014 -5.28931" />
<path d="M-69.4308 -2.26527 A0.25 0.213741 -4.59896e-15 0 1 -69.4212 -2.20655" />
<path d="M-69.4212 -2.20655 A0.25 0.213741 -4.59896e-15 0 1 -69.6025 -2.00103" />
<path  d=" M -70.3923 -5.14251 L -69.4308 -2.26527 " />
<path d="M-72.5077 -6.28558 A0.25 0.213741 -4.59896e-15 0 1 -72.5173 -6.3443" />
<path d="M-72.5173 -6.3443 A0.25 0.213741 -4.59896e-15 0 1 -72.336 -6.54982" />
<path  d=" M -72.336 -6.54982 L -70.7014 -6.94911 " />
<path d="M-70.3923 -6.80231 A0.25 0.213741 180 0 0 -70.7014 -6.94911" />
<path d="M-69.4308 -3.92507 A0.25 0.213741 -4.59896e-15 0 1 -69.4212 -3.86635" />
<path d="M-69.4212 -3.86635 A0.25 0.213741 -4.59896e-15 0 1 -69.4308 -3.80763" />
<path  d=" M -70.3923 -6.80231 L -69.4308 -3.92507 " />
<path  d=" M -45.64 10.9886 L -43.2774 18.0584 " />
<path d="M-45.64 10.9886 A0.7 0.598475 -4.59896e-15 0 1 -45.6669 10.8242" />
<path d="M-45.6669 10.8242 A0.7 0.598475 -4.59896e-15 0 1 -45.1592 10.2488" />
<path d="M-43.2774 18.0584 A0.7 0.598475 180 0 0 -42.412 18.4695" />
<path  d=" M -45.1592 10.2488 L -23.4288 4.94056 " />
<path  d=" M -42.412 18.4695 L -20.6816 13.1612 " />
<path d="M-22.5634 5.35159 A0.7 0.598475 180 0 0 -23.4288 4.94056" />
<path d="M-20.2008 12.4214 A0.7 0.598475 -4.59896e-15 0 1 -20.1739 12.5858" />
<path d="M-20.1739 12.5858 A0.7 0.598475 -4.59896e-15 0 1 -20.6816 13.1612" />
<path  d=" M -22.5634 5.35159 L -20.2008 12.4214 " />
<path d="M-45.6669 7.19342 A0.7 0.598475 -4.59896e-15 0 1 -45.1592 6.61797" />
<path  d=" M -45.1592 6.61797 L -23.4288 1.30975 " />
<path d="M-22.5634 1.72079 A0.7 0.598475 180 0 0 -23.4288 1.30975" />
<path d="M-20.2008 8.79058 A0.7 0.598475 -4.59896e-15 0 1 -20.1739 8.95499" />
<path  d=" M -22.5634 1.72079 L -20.2008 8.79058 " />
<path  d=" M -36.7802 13.3814 L -35.7912 16.3409 " />
<path d="M-36.7802 13.3814 A0.2 0.170993 -4.59896e-15 0 1 -36.7879 13.3345" />
<path d="M-36.7879 13.3345 A0.2 0.170993 -4.59896e-15 0 1 -36.6429 13.1701" />
<path d="M-35.7912 16.3409 A0.2 0.170993 180 0 0 -35.544 16.4583" />
<path  d=" M -36.6429 13.1701 L -34.1429 12.5594 " />
<path  d=" M -35.544 16.4583 L -33.044 15.8476 " />
<path d="M-33.8956 12.6768 A0.2 0.170993 180 0 0 -34.1429 12.5594" />
<path d="M-32.9066 15.6363 A0.2 0.170993 -4.59896e-15 0 1 -32.899 15.6832" />
<path d="M-32.899 15.6832 A0.2 0.170993 -4.59896e-15 0 1 -33.044 15.8476" />
<path  d=" M -33.8956 12.6768 L -32.9066 15.6363 " />
<path d="M-36.7802 11.0992 A0.2 0.170993 -4.59896e-15 0 1 -36.7879 11.0522" />
<path d="M-36.7879 11.0522 A0.2 0.170993 -4.59896e-15 0 1 -36.6429 10.8878" />
<path  d=" M -36.6429 10.8878 L -34.1429 10.2772 " />
<path d="M-33.8956 10.3946 A0.2 0.170993 180 0 0 -34.1429 10.2772" />
<path d="M-32.9066 13.354 A0.2 0.170993 -4.59896e-15 0 1 -32.899 13.401" />
<path d="M-32.899 13.401 A0.2 0.170993 -4.59896e-15 0 1 -32.9066 13.448" />
<path  d=" M -33.8956 10.3946 L -32.9066 13.354 " />
<path  d=" M -25.4068 24.8522 L -24.9123 26.332 " />
<path d="M-25.4068 24.8522 A0.6 0.512979 -4.59896e-15 0 1 -25.4298 24.7113" />
<path d="M-25.4298 24.7113 A0.6 0.512979 -4.59896e-15 0 1 -24.9947 24.2181" />
<path d="M-24.9123 26.332 A0.6 0.512979 180 0 0 -24.1705 26.6843" />
<path  d=" M -24.9947 24.2181 L 74.8115 -0.162144 " />
<path  d=" M -24.1705 26.6843 L 75.6357 2.30406 " />
<path d="M75.5533 0.190171 A0.6 0.512979 180 0 0 74.8115 -0.162144" />
<path d="M76.0478 1.6699 A0.6 0.512979 -4.59896e-15 0 1 76.0708 1.81082" />
<path d="M76.0708 1.81082 A0.6 0.512979 -4.59896e-15 0 1 75.6357 2.30406" />
<path  d=" M 75.5533 0.190171 L 76.0478 1.6699 " />
<path d="M-25.4298 23.6739 A0.6 0.512979 -4.59896e-15 0 1 -24.9947 23.1807" />
<path  d=" M -24.9947 23.1807 L 74.8115 -1.19952 " />
<path d="M75.5533 -0.847201 A0.6 0.512979 180 0 0 74.8115 -1.19952" />
<path d="M76.0478 0.632523 A0.6 0.512979 -4.59896e-15 0 1 76.0708 0.773449" />
<path  d=" M 75.5533 -0.847201 L 76.0478 0.632523 " />
<path  d=" M -48.8542 -21.9705 L -46.9312 -16.216 " />
<path d="M-48.8542 -21.9705 A0.5 0.427482 -4.59896e-15 0 1 -48.8734 -22.0879" />
<path d="M-48.8734 -22.0879 A0.5 0.427482 -4.59896e-15 0 1 -48.5108 -22.4989" />
<path d="M-46.9312 -16.216 A0.5 0.427482 180 0 0 -46.313 -15.9224" />
<path  d=" M -48.5108 -22.4989 L -39.8571 -24.6128 " />
<path  d=" M -46.313 -15.9224 L -45.077 -16.2243 " />
<path  d=" M -41.0851 -17.1994 L -37.6593 -18.0363 " />
<path d="M-39.239 -24.3192 A0.5 0.427482 180 0 0 -39.8571 -24.6128" />
<path d="M-37.3159 -18.5647 A0.5 0.427482 -4.59896e-15 0 1 -37.2967 -18.4473" />
<path d="M-37.2967 -18.4473 A0.5 0.427482 -4.59896e-15 0 1 -37.6593 -18.0363" />
<path  d=" M -39.239 -24.3192 L -37.3159 -18.5647 " />
<path d="M-48.8734 -24.1626 A0.5 0.427482 -4.59896e-15 0 1 -48.5108 -24.5737" />
<path  d=" M -48.5108 -24.5737 L -39.8571 -26.6876 " />
<path d="M-39.239 -26.394 A0.5 0.427482 180 0 0 -39.8571 -26.6876" />
<path d="M-37.3159 -20.6395 A0.5 0.427482 -4.59896e-15 0 1 -37.2967 -20.5221" />
<path  d=" M -39.239 -26.394 L -37.3159 -20.6395 " />
<path d="M-41.162 -16.8472 A2 1.70993 -4.59896e-15 0 1 -41.0851 -16.3775" />
<path d="M-41.0851 -16.3775 A2 1.70993 -4.59896e-15 0 1 -45.0851 -16.3775" />
<path d="M-45.0851 -16.3775 A2 1.70993 -4.59896e-15 0 1 -41.162 -16.8472" />
<path d="M-41.162 -20.6855 A2 1.70993 -4.59896e-15 0 1 -41.0851 -20.2157" />
<path d="M-45.0851 -20.2157 A2 1.70993 -4.59896e-15 0 1 -41.162 -20.6855" />
</g>
</g><text x="199.5000" y="212.0000" font-size="3.2" text-anchor="middle" fill="#141413">三个控制件的内部传动 · 0.634:1</text></svg>