<svg xmlns="http://www.w3.org/2000/svg" width="396mm" height="214mm" viewBox="0 0 396 214"><style>text {font-family:TsangerJinKai02, Noto Serif CJK SC, serif;font-weight:400;}</style><text x="110.0000" y="17.0000" font-size="4" text-anchor="middle" fill="#141413">A-A · 主机 Y=0</text><path d="M 23.31000 121.43960 L 23.31000 126.63898 L 189.69000 126.63898 L 189.69000 121.43960 L 188.39016 121.43960 L 188.39016 125.07917 L 24.60984 125.07917 L 24.60984 121.43960 L 23.31000 121.43960 Z" fill="#e8e6dc" fill-rule="evenodd" stroke="#504e49" stroke-width=".16"/><path d="M 188.39016 82.96423 L 189.69000 82.96423 L 189.69000 80.36454 L 188.39016 80.36454 L 188.39016 82.96423 Z" fill="#e8e6dc" fill-rule="evenodd" stroke="#504e49" stroke-width=".16"/><path d="M 24.60984 80.36454 L 23.31000 80.36454 L 23.31000 82.96423 L 24.60984 82.96423 L 24.60984 80.36454 Z" fill="#e8e6dc" fill-rule="evenodd" stroke="#504e49" stroke-width=".16"/><path d="M 139.97407 77.40090 L 73.02593 77.40090 L 73.02593 78.64875 L 139.97407 78.64875 L 139.97407 77.40090 Z" fill="#e8e6dc" fill-rule="evenodd" stroke="#504e49" stroke-width=".16"/><path d="M 188.13019 78.64875 L 188.13019 80.20856 L 189.56002 80.20856 L 189.56002 77.40090 L 187.61025 77.40090 L 187.61025 78.64875 L 188.13019 78.64875 Z" fill="#e8e6dc" fill-rule="evenodd" stroke="#504e49" stroke-width=".16"/><path d="M 23.43998 77.40090 L 23.43998 80.20856 L 24.86981 80.20856 L 24.86981 78.64875 L 25.38975 78.64875 L 25.38975 77.40090 L 23.43998 77.40090 Z" fill="#e8e6dc" fill-rule="evenodd" stroke="#504e49" stroke-width=".16"/><path d="M 125.47772 77.34890 L 138.73612 77.34890 L 138.73612 76.36102 L 125.47772 76.36102 L 125.47772 77.34890 Z" fill="#e8e6dc" fill-rule="evenodd" stroke="#504e49" stroke-width=".16"/><path d="M 74.26388 76.36102 L 74.26388 77.34890 L 84.20768 77.34890 L 87.52228 77.34890 L 87.52228 76.36102 L 74.26388 76.36102 Z" fill="#e8e6dc" fill-rule="evenodd" stroke="#504e49" stroke-width=".16"/><path d="M 87.78225 76.38702 L 87.78225 77.32291 L 125.21775 77.32291 L 125.21775 76.38702 L 87.78225 76.38702 Z" fill="#e8e6dc" fill-rule="evenodd" stroke="#504e49" stroke-width=".16"/><path d="M 113.52084 76.36206 L 113.52084 76.37142 L 114.26973 76.37142 L 114.51936 76.37142 L 114.51936 76.36206 L 113.52084 76.36206 Z" fill="#e8e6dc" fill-rule="evenodd" stroke="#504e49" stroke-width=".16"/><path d="M 94.03819 76.36206 L 94.03819 76.37142 L 94.78708 76.37142 L 95.03671 76.37142 L 95.03671 76.36206 L 94.03819 76.36206 Z" fill="#e8e6dc" fill-rule="evenodd" stroke="#504e49" stroke-width=".16"/><path d="M 114.92905 76.36206 L 114.92905 76.37142 L 115.67310 76.37142 L 115.92112 76.37142 L 115.92112 76.36206 L 114.92905 76.36206 Z" fill="#e8e6dc" fill-rule="evenodd" stroke="#504e49" stroke-width=".16"/><path d="M 95.44640 76.36206 L 95.44640 76.37142 L 96.19045 76.37142 L 96.43847 76.37142 L 96.43847 76.36206 L 95.44640 76.36206 Z" fill="#e8e6dc" fill-rule="evenodd" stroke="#504e49" stroke-width=".16"/><path d="M 104.65025 76.37142 L 104.65025 76.36206 L 103.66787 76.36206 L 103.66787 76.37142 L 104.65025 76.37142 Z" fill="#e8e6dc" fill-rule="evenodd" stroke="#504e49" stroke-width=".16"/><path d="M 99.42231 76.36206 L 98.44057 76.36206 L 98.44057 76.37142 L 99.42231 76.37142 L 99.42231 76.36206 Z" fill="#e8e6dc" fill-rule="evenodd" stroke="#504e49" stroke-width=".16"/><path d="M 106.80973 76.36206 L 105.84620 76.36206 L 105.84620 76.37142 L 106.80973 76.37142 L 106.80973 76.36206 Z" fill="#e8e6dc" fill-rule="evenodd" stroke="#504e49" stroke-width=".16"/><path d="M 110.58897 76.37142 L 110.58897 76.36206 L 109.89510 76.36206 L 109.66381 76.36206 L 109.66381 76.37142 L 110.58897 76.37142 Z" fill="#e8e6dc" fill-rule="evenodd" stroke="#504e49" stroke-width=".16"/><path d="M 26.42963 124.22127 L 26.42963 124.50723 L 186.57037 124.50723 L 186.57037 124.22127 L 26.42963 124.22127 Z" fill="#e8e6dc" fill-rule="evenodd" stroke="#504e49" stroke-width=".16"/><path d="M 186.23242 124.14328 L 186.49238 124.14328 L 186.49238 91.90715 L 186.23242 91.90715 L 186.23242 124.14328 Z" fill="#e8e6dc" fill-rule="evenodd" stroke="#504e49" stroke-width=".16"/><path d="M 26.50762 124.14328 L 26.76758 124.14328 L 26.76758 91.90715 L 26.50762 91.90715 L 26.50762 124.14328 Z" fill="#e8e6dc" fill-rule="evenodd" stroke="#504e49" stroke-width=".16"/><path d="M 26.68959 80.10457 L 26.68959 80.36454 L 186.31041 80.36454 L 186.31041 80.10457 L 26.68959 80.10457 Z" fill="#e8e6dc" fill-rule="evenodd" stroke="#504e49" stroke-width=".16"/><path d="M 63.60516 121.17963 L 63.60516 121.95954 L 181.11103 121.95954 L 181.11103 121.17963 L 63.60516 121.17963 Z" fill="#e8e6dc" fill-rule="evenodd" stroke="#504e49" stroke-width=".16"/><path d="M 150.95466 121.10164 L 163.95309 121.10164 L 163.95309 120.26974 L 150.95466 120.26974 L 150.95466 121.10164 Z" fill="#e8e6dc" fill-rule="evenodd" stroke="#504e49" stroke-width=".16"/><path d="M 121.83816 121.10164 L 133.79672 121.10164 L 133.79672 120.37373 L 121.83816 120.37373 L 121.83816 121.10164 Z" fill="#e8e6dc" fill-rule="evenodd" stroke="#504e49" stroke-width=".16"/><path d="M 121.83816 122.79144 L 133.79672 122.79144 L 133.79672 122.06353 L 121.83816 122.06353 L 121.83816 122.79144 Z" fill="#e8e6dc" fill-rule="evenodd" stroke="#504e49" stroke-width=".16"/><path d="M 28.24941 123.93530 L 59.96559 123.93530 L 59.96559 123.57135 L 28.24941 123.57135 L 28.24941 123.93530 Z" fill="#e8e6dc" fill-rule="evenodd" stroke="#504e49" stroke-width=".16"/><path d="M 29.02931 121.23163 L 29.02931 121.95954 L 59.18569 121.95954 L 59.18569 121.23163 L 29.02931 121.23163 Z" fill="#e8e6dc" fill-rule="evenodd" stroke="#504e49" stroke-width=".16"/><path d="M 35.78850 121.12764 L 51.38663 121.12764 L 51.38663 106.56939 L 35.78850 106.56939 L 35.78850 121.12764 Z" fill="#e8e6dc" fill-rule="evenodd" stroke="#504e49" stroke-width=".16"/><path d="M 38.12822 106.36142 L 49.04691 106.36142 L 49.04691 106.04945 L 38.12822 106.04945 L 38.12822 106.36142 Z" fill="#e8e6dc" fill-rule="evenodd" stroke="#504e49" stroke-width=".16"/><path d="M 56.32603 121.12764 L 56.84597 121.12764 L 56.84597 108.64914 L 56.32603 108.64914 L 56.32603 121.12764 Z" fill="#e8e6dc" fill-rule="evenodd" stroke="#504e49" stroke-width=".16"/><path d="M 180.33112 106.36142 L 183.71072 106.36142 L 183.71072 104.80160 L 180.33112 104.80160 L 180.33112 106.36142 Z" fill="#e8e6dc" fill-rule="evenodd" stroke="#504e49" stroke-width=".16"/><path d="M 107.53987 104.80160 L 104.16028 104.80160 L 104.16028 106.36142 L 107.53987 106.36142 L 107.53987 104.80160 Z" fill="#e8e6dc" fill-rule="evenodd" stroke="#504e49" stroke-width=".16"/><path d="M 105.98006 104.28167 L 181.89094 104.28167 L 181.89094 84.52404 L 181.31901 84.52404 L 181.31901 103.76173 L 106.55199 103.76173 L 106.55199 84.52404 L 105.98006 84.52404 L 105.98006 104.28167 Z" fill="#e8e6dc" fill-rule="evenodd" stroke="#504e49" stroke-width=".16"/><path d="M 105.98006 84.36806 L 181.89094 84.36806 L 181.89094 84.00410 L 105.98006 84.00410 L 105.98006 84.36806 Z" fill="#e8e6dc" fill-rule="evenodd" stroke="#504e49" stroke-width=".16"/><path d="M 172.05061 92.84304 L 179.03128 92.84304 L 179.03128 91.80317 L 172.05061 91.80317 L 172.05061 92.84304 Z" fill="#e8e6dc" fill-rule="evenodd" stroke="#504e49" stroke-width=".16"/><path d="M 115.82039 91.80317 L 108.83972 91.80317 L 108.83972 92.84304 L 115.82039 92.84304 L 115.82039 91.80317 Z" fill="#e8e6dc" fill-rule="evenodd" stroke="#504e49" stroke-width=".16"/><path d="M 151.73456 97.83444 L 151.50398 97.87193 L 151.29714 97.98053 L 151.13536 98.14906 L 151.03530 98.36016 L 151.00726 98.59208 L 151.05413 98.82094 L 151.17109 99.02317 L 151.34608 99.17793 L 151.56109 99.26929 L 151.79397 99.28784 L 152.02072 99.23166 L 152.21801 99.10654 L 152.36549 98.92537 L 152.44800 98.70681 L 152.45702 98.47337 L 152.39162 98.24910 L 152.25855 98.05709 L 152.07151 97.91712 L 151.84976 97.84361 L 151.73456 97.83444 Z" fill="#e8e6dc" fill-rule="evenodd" stroke="#504e49" stroke-width=".16"/><path d="M 136.13644 97.83444 L 135.90585 97.87193 L 135.69902 97.98053 L 135.53724 98.14906 L 135.43717 98.36016 L 135.40913 98.59208 L 135.45601 98.82094 L 135.57296 99.02317 L 135.74796 99.17793 L 135.96297 99.26929 L 136.19584 99.28784 L 136.42260 99.23166 L 136.61988 99.10654 L 136.76737 98.92537 L 136.84987 98.70681 L 136.85889 98.47337 L 136.79350 98.24910 L 136.66043 98.05709 L 136.47339 97.91712 L 136.25164 97.84361 L 136.13644 97.83444 Z" fill="#e8e6dc" fill-rule="evenodd" stroke="#504e49" stroke-width=".16"/><path d="M 92.20172 100.38213 L 95.06137 100.38213 L 95.06137 98.82232 L 92.20172 98.82232 L 92.20172 100.38213 Z" fill="#e8e6dc" fill-rule="evenodd" stroke="#504e49" stroke-width=".16"/><path d="M 40.72791 98.82232 L 37.86825 98.82232 L 37.86825 100.38213 L 40.72791 100.38213 L 40.72791 98.82232 Z" fill="#e8e6dc" fill-rule="evenodd" stroke="#504e49" stroke-width=".16"/><path d="M 40.05199 98.04242 L 92.87764 98.04242 L 92.87764 88.68354 L 92.87764 85.56392 L 91.57779 85.56392 L 91.57779 97.00254 L 41.35183 97.00254 L 41.35183 85.56392 L 40.05199 85.56392 L 40.05199 98.04242 Z" fill="#e8e6dc" fill-rule="evenodd" stroke="#504e49" stroke-width=".16"/><path d="M 40.05199 85.40793 L 92.87764 85.40793 L 92.87764 85.09597 L 92.87764 84.99198 L 40.05199 84.99198 L 40.05199 85.40793 Z" fill="#e8e6dc" fill-rule="evenodd" stroke="#504e49" stroke-width=".16"/><path d="M 51.64659 84.93999 L 81.28303 84.93999 L 81.28303 84.91399 L 51.64659 84.91399 L 51.64659 84.93999 Z" fill="#e8e6dc" fill-rule="evenodd" stroke="#504e49" stroke-width=".16"/><path d="M 56.93420 92.84304 L 56.93420 93.36298 L 75.99542 93.36298 L 75.99542 92.84304 L 56.93420 92.84304 Z" fill="#e8e6dc" fill-rule="evenodd" stroke="#504e49" stroke-width=".16"/><path d="M 58.66575 91.80317 L 63.59278 91.80317 L 63.59278 91.23123 L 58.66575 91.23123 L 58.66575 91.80317 Z" fill="#e8e6dc" fill-rule="evenodd" stroke="#504e49" stroke-width=".16"/><path d="M 43.32759 98.92631 L 89.60203 98.92631 L 89.60203 98.35438 L 43.32759 98.35438 L 43.32759 98.92631 Z" fill="#e8e6dc" fill-rule="evenodd" stroke="#504e49" stroke-width=".16"/><path d="M 133.12080 81.92435 L 106.60399 81.92435 L 106.60399 82.18432 L 133.12080 82.18432 L 133.12080 81.92435 Z" fill="#e8e6dc" fill-rule="evenodd" stroke="#504e49" stroke-width=".16"/><path d="M 179.17842 109.82532 L 179.26719 109.87690 L 179.36793 109.85707 L 179.43053 109.77569 L 179.42386 109.67324 L 179.35123 109.60066 L 179.24877 109.59407 L 179.16744 109.65673 L 179.14769 109.75749 L 179.15864 109.79340 L 179.17842 109.82532 Z" fill="#e8e6dc" fill-rule="evenodd" stroke="#504e49" stroke-width=".16"/><path d="M 178.39851 109.82532 L 178.48728 109.87690 L 178.58802 109.85707 L 178.65062 109.77569 L 178.64395 109.67324 L 178.57132 109.60066 L 178.46886 109.59407 L 178.38753 109.65673 L 178.36778 109.75749 L 178.37874 109.79340 L 178.39851 109.82532 Z" fill="#e8e6dc" fill-rule="evenodd" stroke="#504e49" stroke-width=".16"/><path d="M 177.61861 109.82532 L 177.70738 109.87690 L 177.80812 109.85707 L 177.87072 109.77569 L 177.86404 109.67324 L 177.79142 109.60066 L 177.68896 109.59407 L 177.60763 109.65673 L 177.58788 109.75749 L 177.59883 109.79340 L 177.61861 109.82532 Z" fill="#e8e6dc" fill-rule="evenodd" stroke="#504e49" stroke-width=".16"/><path d="M 176.83870 109.82532 L 176.92747 109.87690 L 177.02821 109.85707 L 177.09081 109.77569 L 177.08414 109.67324 L 177.01151 109.60066 L 176.90905 109.59407 L 176.82772 109.65673 L 176.80797 109.75749 L 176.81892 109.79340 L 176.83870 109.82532 Z" fill="#e8e6dc" fill-rule="evenodd" stroke="#504e49" stroke-width=".16"/><path d="M 176.05879 109.82532 L 176.14756 109.87690 L 176.24830 109.85707 L 176.31090 109.77569 L 176.30423 109.67324 L 176.23160 109.60066 L 176.12914 109.59407 L 176.04781 109.65673 L 176.02806 109.75749 L 176.03902 109.79340 L 176.05879 109.82532 Z" fill="#e8e6dc" fill-rule="evenodd" stroke="#504e49" stroke-width=".16"/><path d="M 175.27889 109.82532 L 175.36766 109.87690 L 175.46840 109.85707 L 175.53100 109.77569 L 175.52433 109.67324 L 175.45170 109.60066 L 175.34924 109.59407 L 175.26791 109.65673 L 175.24816 109.75749 L 175.25911 109.79340 L 175.27889 109.82532 Z" fill="#e8e6dc" fill-rule="evenodd" stroke="#504e49" stroke-width=".16"/><text x="106.5000" y="190.0000" font-size="3.2" text-anchor="middle" fill="#141413">双驱动器、主板与开放电源 · 0.520:1</text><text x="305.0000" y="17.0000" font-size="4" text-anchor="middle" fill="#141413">B-B · Duke Y=-70</text><path d="M 372.50643 117.46655 L 373.98398 116.59924 L 375.28602 115.70249 L 376.42651 114.77877 L 376.62112 114.60480 L 377.58679 113.65091 L 378.12311 113.03963 L 378.87441 112.04446 L 379.50607 111.02251 L 380.02557 109.97113 L 380.15715 109.65761 L 380.53961 108.56301 L 380.81983 107.42991 L 380.99306 106.30806 L 380.99908 106.25297 L 381.07672 105.02654 L 381.07784 104.45251 L 381.00299 103.14291 L 380.81753 101.76793 L 380.64241 100.87128 L 380.63287 100.82772 L 379.00679 100.82772 L 379.34501 102.30022 L 379.54282 103.67270 L 379.60202 104.51698 L 379.60361 104.55826 L 379.59160 105.78256 L 379.55239 106.27669 L 379.38315 107.39502 L 379.11084 108.44858 L 378.79873 109.30443 L 378.78155 109.34545 L 378.32123 110.29666 L 377.76149 111.20297 L 377.09911 112.06946 L 377.03437 112.14555 L 376.25412 112.97299 L 375.74457 113.44160 L 374.77704 114.21728 L 373.67894 114.96166 L 372.43930 115.67426 L 372.19319 115.80266 L 253.63179 115.80266 L 252.25910 115.03170 L 251.06326 114.22855 L 250.12462 113.48008 L 250.08041 113.44160 L 249.18546 112.58332 L 248.79061 112.14555 L 248.09381 111.24674 L 247.51640 110.31962 L 247.06313 109.39187 L 247.04343 109.34545 L 246.68414 108.35168 L 246.42641 107.31806 L 246.27760 106.32544 L 246.27259 106.27669 L 246.21257 105.14719 L 246.22137 104.55826 L 246.31924 103.33769 L 246.52923 102.04712 L 246.80303 100.88405 L 246.81819 100.82772 L 245.19211 100.82772 L 244.91635 102.34927 L 244.77252 103.78052 L 244.74769 104.42121 L 244.74714 104.45251 L 244.78219 105.76366 L 244.82590 106.25297 L 245.01270 107.46754 L 245.30277 108.62098 L 245.64878 109.61012 L 245.66783 109.65761 L 246.15201 110.71118 L 246.73654 111.72157 L 247.42420 112.69350 L 247.70187 113.03963 L 248.53782 113.96481 L 249.20386 114.60480 L 250.24363 115.47744 L 251.41424 116.32089 L 252.72564 117.13496 L 253.31855 117.46655 L 372.50643 117.46655 Z" fill="#e8e6dc" fill-rule="evenodd" stroke="#504e49" stroke-width=".16"/><path d="M 350.78231 89.63433 L 350.78231 87.97044 L 330.81006 87.97044 L 330.81006 89.10491 L 295.01492 89.10491 L 295.01492 87.97044 L 278.44613 87.97044 L 278.44613 89.63433 L 350.78231 89.63433 Z" fill="#e8e6dc" fill-rule="evenodd" stroke="#504e49" stroke-width=".16"/><path d="M 276.28568 89.63433 L 276.28568 87.97044 L 249.25533 87.97044 L 248.30561 89.20595 L 247.55753 90.34123 L 246.86479 91.58767 L 246.29481 92.84283 L 245.84130 94.10994 L 245.54828 95.18010 L 245.29733 96.47859 L 245.15333 97.80014 L 245.11543 98.78118 L 245.11504 98.82910 L 245.15955 100.20292 L 245.19211 100.60083 L 246.84655 100.60083 L 246.78259 99.15486 L 246.83183 97.74978 L 246.99065 96.38032 L 247.11587 95.68015 L 247.43762 94.35546 L 247.86624 93.05437 L 248.40320 91.77253 L 248.51502 91.53635 L 249.18419 90.27233 L 249.56856 89.63433 L 276.28568 89.63433 Z" fill="#e8e6dc" fill-rule="evenodd" stroke="#504e49" stroke-width=".16"/><path d="M 380.63287 100.60083 L 380.70994 98.82910 L 380.64463 97.45619 L 380.47023 96.12439 L 380.28698 95.22377 L 380.27671 95.18010 L 379.91893 93.90686 L 379.45524 92.66105 L 378.88392 91.43816 L 378.26745 90.34123 L 377.48079 89.15183 L 376.56965 87.97044 L 361.26205 87.97044 L 361.26205 89.63433 L 376.25642 89.63433 L 377.00960 90.94063 L 377.30996 91.53635 L 377.88010 92.84792 L 378.33220 94.16659 L 378.67109 95.49596 L 378.70911 95.68016 L 378.92323 97.02646 L 379.02962 98.39211 L 379.02862 99.78173 L 378.97843 100.60083 L 380.63287 100.60083 Z" fill="#e8e6dc" fill-rule="evenodd" stroke="#504e49" stroke-width=".16"/><path d="M 295.36087 87.66792 L 295.36087 88.65112 L 330.46411 88.65112 L 330.46411 87.66792 L 295.36087 87.66792 Z" fill="#e8e6dc" fill-rule="evenodd" stroke="#504e49" stroke-width=".16"/><path d="M 319.16286 87.60893 L 319.16286 87.62254 L 319.62958 87.62254 L 319.78516 87.62254 L 319.78516 87.60893 L 319.16286 87.60893 Z" fill="#e8e6dc" fill-rule="evenodd" stroke="#504e49" stroke-width=".16"/><path d="M 307.01723 87.60893 L 307.01723 87.62254 L 307.48395 87.62254 L 307.63952 87.62254 L 307.63952 87.60893 L 307.01723 87.60893 Z" fill="#e8e6dc" fill-rule="evenodd" stroke="#504e49" stroke-width=".16"/><path d="M 320.18399 87.60893 L 320.18399 87.62254 L 320.64804 87.62254 L 320.80272 87.62254 L 320.80272 87.60893 L 320.18399 87.60893 Z" fill="#e8e6dc" fill-rule="evenodd" stroke="#504e49" stroke-width=".16"/><path d="M 308.03836 87.60893 L 308.03836 87.62254 L 308.50241 87.62254 L 308.65709 87.62254 L 308.65709 87.60893 L 308.03836 87.60893 Z" fill="#e8e6dc" fill-rule="evenodd" stroke="#504e49" stroke-width=".16"/><path d="M 313.68495 87.62254 L 313.68495 87.60893 L 313.06971 87.60893 L 313.06971 87.62254 L 313.68495 87.62254 Z" fill="#e8e6dc" fill-rule="evenodd" stroke="#504e49" stroke-width=".16"/><path d="M 310.46685 87.60893 L 309.85220 87.60893 L 309.85220 87.62254 L 310.46685 87.62254 L 310.46685 87.60893 Z" fill="#e8e6dc" fill-rule="evenodd" stroke="#504e49" stroke-width=".16"/><path d="M 315.01708 87.60893 L 314.41796 87.60893 L 314.41796 87.62254 L 315.01708 87.62254 L 315.01708 87.60893 Z" fill="#e8e6dc" fill-rule="evenodd" stroke="#504e49" stroke-width=".16"/><path d="M 317.40638 87.62254 L 317.40638 87.60893 L 316.97382 87.60893 L 316.82963 87.60893 L 316.82963 87.62254 L 317.40638 87.62254 Z" fill="#e8e6dc" fill-rule="evenodd" stroke="#504e49" stroke-width=".16"/><path d="M 356.52386 86.53345 L 355.52050 86.53345 L 354.83105 86.66620 L 354.17072 86.90481 L 353.55565 87.24343 L 353.00089 87.67379 L 352.52000 88.18537 L 352.12473 88.76565 L 351.82475 89.40046 L 351.62739 90.07427 L 351.55002 90.59206 L 351.54779 90.61753 L 360.49657 90.61753 L 360.38293 89.92467 L 360.16267 89.25799 L 359.84118 88.63381 L 359.42631 88.06736 L 358.92822 87.57251 L 358.35908 87.16136 L 357.73281 86.84394 L 357.06471 86.62804 L 356.79573 86.57247 L 356.52386 86.53345 Z" fill="#e8e6dc" fill-rule="evenodd" stroke="#504e49" stroke-width=".16"/><path d="M 254.55558 100.67646 L 254.55558 101.58403 L 371.26940 101.58403 L 371.26940 100.67646 L 254.55558 100.67646 Z" fill="#e8e6dc" fill-rule="evenodd" stroke="#504e49" stroke-width=".16"/><path d="M 316.50496 101.77311 L 316.80749 101.77311 L 316.80749 101.65210 L 316.50496 101.65210 L 316.50496 101.77311 Z" fill="#e8e6dc" fill-rule="evenodd" stroke="#504e49" stroke-width=".16"/><path d="M 315.82429 101.77311 L 316.12681 101.77311 L 316.12681 101.65210 L 315.82429 101.65210 L 315.82429 101.77311 Z" fill="#e8e6dc" fill-rule="evenodd" stroke="#504e49" stroke-width=".16"/><path d="M 315.14361 101.77311 L 315.44613 101.77311 L 315.44613 101.65210 L 315.14361 101.65210 L 315.14361 101.77311 Z" fill="#e8e6dc" fill-rule="evenodd" stroke="#504e49" stroke-width=".16"/><path d="M 314.46293 101.77311 L 314.76545 101.77311 L 314.76545 101.65210 L 314.46293 101.65210 L 314.46293 101.77311 Z" fill="#e8e6dc" fill-rule="evenodd" stroke="#504e49" stroke-width=".16"/><path d="M 313.78225 101.77311 L 314.08477 101.77311 L 314.08477 101.65210 L 313.78225 101.65210 L 313.78225 101.77311 Z" fill="#e8e6dc" fill-rule="evenodd" stroke="#504e49" stroke-width=".16"/><path d="M 313.10157 101.77311 L 313.40409 101.77311 L 313.40409 101.65210 L 313.10157 101.65210 L 313.10157 101.77311 Z" fill="#e8e6dc" fill-rule="evenodd" stroke="#504e49" stroke-width=".16"/><path d="M 312.42089 101.77311 L 312.72341 101.77311 L 312.72341 101.65210 L 312.42089 101.65210 L 312.42089 101.77311 Z" fill="#e8e6dc" fill-rule="evenodd" stroke="#504e49" stroke-width=".16"/><path d="M 311.74021 101.77311 L 312.04273 101.77311 L 312.04273 101.65210 L 311.74021 101.65210 L 311.74021 101.77311 Z" fill="#e8e6dc" fill-rule="evenodd" stroke="#504e49" stroke-width=".16"/><path d="M 311.05953 101.77311 L 311.36205 101.77311 L 311.36205 101.65210 L 311.05953 101.65210 L 311.05953 101.77311 Z" fill="#e8e6dc" fill-rule="evenodd" stroke="#504e49" stroke-width=".16"/><path d="M 310.37885 101.77311 L 310.68137 101.77311 L 310.68137 101.65210 L 310.37885 101.65210 L 310.37885 101.77311 Z" fill="#e8e6dc" fill-rule="evenodd" stroke="#504e49" stroke-width=".16"/><path d="M 309.69817 101.77311 L 310.00070 101.77311 L 310.00070 101.65210 L 309.69817 101.65210 L 309.69817 101.77311 Z" fill="#e8e6dc" fill-rule="evenodd" stroke="#504e49" stroke-width=".16"/><path d="M 309.01749 101.77311 L 309.32002 101.77311 L 309.32002 101.65210 L 309.01749 101.65210 L 309.01749 101.77311 Z" fill="#e8e6dc" fill-rule="evenodd" stroke="#504e49" stroke-width=".16"/><path d="M 259.21445 100.33612 L 282.66008 100.33612 L 282.66008 99.95796 L 259.21445 99.95796 L 259.21445 100.33612 Z" fill="#e8e6dc" fill-rule="evenodd" stroke="#504e49" stroke-width=".16"/><path d="M 229.49146 112.17237 L 229.43684 111.80163 L 229.27764 111.46238 L 229.02738 111.18344 L 228.70731 110.98852 L 228.34464 110.89417 L 227.97016 110.90841 L 227.61570 111.03003 L 227.31136 111.24869 L 227.08300 111.54582 L 226.95002 111.89618 L 226.92371 112.27000 L 227.00632 112.63553 L 227.19082 112.96172 L 227.46154 113.22084 L 227.79548 113.39090 L 228.16428 113.45743 L 228.53659 113.41480 L 228.88080 113.26662 L 229.16765 113.02548 L 229.37279 112.71187 L 229.46144 112.44857 L 229.49146 112.17237 Z" fill="#e8e6dc" fill-rule="evenodd" stroke="#504e49" stroke-width=".16"/><text x="304.0000" y="190.0000" font-size="3.2" text-anchor="middle" fill="#141413">双壳、单主板与操作层 · 0.756:1</text></svg>